<svg width="400" height="226" viewBox="0 0 400 226" fill="none" xmlns="http://www.w3.org/2000/svg">
<g clip-path="url(#clip0_3_224)">
<path d="M125.182 114.307L71.3 114.773L71.1546 223.089L27.9735 222.944L27.799 115.441L0.349183 113.173L0.000244141 73.4235L28.526 72.493C26.4905 49.7247 30.6196 28.265 47.3687 14.3656C62.2567 1.97828 85.432 -3.48842 104.769 4.18823L104.478 41.3502C93.4867 41.9027 84.298 42.4552 78.1916 47.3403C72.0851 52.2254 70.0206 63.4496 72.5213 72.5511L168.741 73.3944L168.799 222.507L125.589 223.467L125.211 114.278L125.182 114.307Z" fill="white"/>
<path d="M275.342 145.537L341.582 222.826L286.944 223.495L232.946 157.371L232.19 223.146L189.154 223.263L189.212 9.10156L232.161 9.21788L232.917 133.702L284.822 72.9282L336.406 73.568L275.342 145.537Z" fill="white"/>
<path d="M140.049 1.04811C153.919 -3.19731 167.499 5.93325 171.599 17.0121C177.007 31.6093 168.284 46.1775 156.653 50.6265C141.328 56.4712 126.818 48.0967 122.457 35.0987C117.601 20.6468 124.754 5.72971 140.049 1.04811Z" fill="white"/>
<path d="M362.614 175.545C377.007 168.77 391.779 176.069 397.886 188.892C403.527 200.727 397.537 216.749 384.568 222.681C372.384 228.235 358.194 223.786 351.419 212.766C343.626 200.117 347.057 182.844 362.614 175.516V175.545Z" fill="white"/>
</g>
<defs>
<clipPath id="clip0_3_224">
<rect width="400" height="225.094" fill="white"/>
</clipPath>
</defs>
</svg>
